
<svg viewBox="0 0 256 256">
  <path d="
    M37.0,46.0 C34.79086100067683,46.0 33.0,47.79086100067683 33.0,50.0
    V61.0
    Q33.0,65.0 35.82842712474619,67.82842712474618
    L89.17157287525382,121.17157287525382
    Q92.0,124.0 92.0,128.0
    V212.0
    C92.0,214.2091389993232 93.79086100067683,216.0 96.0,216.0
    H107.0
    C109.20913899932317,216.0 111.0,214.2091389993232 111.0,212.0
    V128.0
    Q111.0,124.0 113.82842712474618,121.17157287525382
    L167.17157287525382,67.82842712474618
    Q170.0,65.0 170.0,62.17157287525381
    V50.0
    C170.0,47.79086100067683 168.2091389993232,46.0 166.0,46.0
    H37.0
    
    M63.87005768508881,65.0 Q59.87005768508881,65.0 62.698484809835,67.82842712474618
    L89.17157287525382,94.301515190165
    Q92.0,97.12994231491119 92.0,93.12994231491119
    V69.0
    C92.0,66.79086100067683 90.20913899932317,65.0 88.0,65.0
    H63.87005768508881
    
    M115.0,65.0 C112.79086100067683,65.0 111.0,66.79086100067683 111.0,69.0
    V93.12994231491119
    Q111.0,97.12994231491119 113.82842712474618,94.301515190165
    L140.30151519016502,67.82842712474618
    Q143.1299423149112,65.0 139.1299423149112,65.0
    H115.0
    
    
    M140.0,124.0 C137.7908610006768,124.0 136.0,125.79086100067683 136.0,128.0
    V212.0
    C136.0,214.2091389993232 137.7908610006768,216.0 140.0,216.0
    H147.0
    C149.2091389993232,216.0 151.0,214.2091389993232 151.0,212.0
    V128.0
    C151.0,125.79086100067683 149.2091389993232,124.0 147.0,124.0
    H140.0
    
    
    M170.0,94.0 C167.7908610006768,94.0 166.0,95.79086100067683 166.0,98.0
    V212.0
    C166.0,214.2091389993232 167.7908610006768,216.0 170.0,216.0
    H177.0
    C179.2091389993232,216.0 181.0,214.2091389993232 181.0,212.0
    V98.0
    C181.0,95.79086100067683 179.2091389993232,94.0 177.0,94.0
    H170.0
    
    
    M200.0,46.0 C197.7908610006768,46.0 196.0,47.79086100067683 196.0,50.0
    V212.0
    C196.0,214.2091389993232 197.7908610006768,216.0 200.0,216.0
    H207.0
    C209.2091389993232,216.0 211.0,214.2091389993232 211.0,212.0
    V50.0
    C211.0,47.79086100067683 209.2091389993232,46.0 207.0,46.0
    H200.0
  " stroke="white" stroke-width="4" fill="#0080FF" fill-rule="evenodd" />
</svg>

